<mxfile modified="2023-05-13T12:33:32.941Z" host="app.diagrams.net" agent="Mozilla/5.0 (Macintosh; Intel Mac OS X 10_15_7) AppleWebKit/605.1.15 (KHTML, like Gecko) Version/16.3 Safari/605.1.15" etag="agVE91IJRagMm5FFP4bi" version="21.3.0" type="github">
  <diagram id="Ht1M8jgEwFfnCIfOTk4-" name="Page-1">
    <mxGraphModel dx="-26" dy="647" grid="1" gridSize="10" guides="1" tooltips="1" connect="1" arrows="1" fold="1" page="1" pageScale="1" pageWidth="1169" pageHeight="827" math="0" shadow="0">
      <root>
        <mxCell id="0" />
        <mxCell id="1" parent="0" />
        <mxCell id="Xdk9vmkyjLjq7mwxCuOa-5" value="" style="outlineConnect=0;fontColor=#232F3E;gradientColor=none;fillColor=#277116;strokeColor=none;dashed=0;verticalLabelPosition=bottom;verticalAlign=top;align=center;html=1;fontSize=12;fontStyle=0;aspect=fixed;pointerEvents=1;shape=mxgraph.aws4.camera;" parent="1" vertex="1">
          <mxGeometry x="1736" y="292.5" width="78" height="78" as="geometry" />
        </mxCell>
        <mxCell id="Xdk9vmkyjLjq7mwxCuOa-11" value="1" style="rounded=1;whiteSpace=wrap;html=1;fillColor=#007CBD;strokeColor=none;fontColor=#FFFFFF;fontStyle=1;fontSize=22;" parent="1" vertex="1">
          <mxGeometry x="1814" y="229.5" width="40" height="38" as="geometry" />
        </mxCell>
        <mxCell id="Xdk9vmkyjLjq7mwxCuOa-26" value="2" style="rounded=1;whiteSpace=wrap;html=1;fillColor=#007CBD;strokeColor=none;fontColor=#FFFFFF;fontStyle=1;fontSize=22;" parent="1" vertex="1">
          <mxGeometry x="2191" y="220.5" width="40" height="38" as="geometry" />
        </mxCell>
        <mxCell id="Xdk9vmkyjLjq7mwxCuOa-27" value="3" style="rounded=1;whiteSpace=wrap;html=1;fillColor=#007CBD;strokeColor=none;fontColor=#FFFFFF;fontStyle=1;fontSize=22;" parent="1" vertex="1">
          <mxGeometry x="2531" y="175.5" width="40" height="38" as="geometry" />
        </mxCell>
        <mxCell id="Xdk9vmkyjLjq7mwxCuOa-35" value="aiWingman" style="text;html=1;resizable=0;points=[];autosize=1;align=left;verticalAlign=top;spacingTop=-4;fontSize=30;fontStyle=1" parent="1" vertex="1">
          <mxGeometry x="1764" y="64.5" width="180" height="40" as="geometry" />
        </mxCell>
        <mxCell id="Xdk9vmkyjLjq7mwxCuOa-36" value="SW Architecture&lt;br&gt;" style="text;html=1;resizable=0;points=[];autosize=1;align=left;verticalAlign=top;spacingTop=-4;fontSize=16;" parent="1" vertex="1">
          <mxGeometry x="1764" y="114.5" width="140" height="30" as="geometry" />
        </mxCell>
        <mxCell id="Xdk9vmkyjLjq7mwxCuOa-37" value="Visual Input" style="text;html=1;resizable=0;points=[];autosize=1;align=left;verticalAlign=top;spacingTop=-4;fontSize=16;fontStyle=1" parent="1" vertex="1">
          <mxGeometry x="1803" y="179.5" width="110" height="30" as="geometry" />
        </mxCell>
        <mxCell id="Xdk9vmkyjLjq7mwxCuOa-38" value="" style="line;strokeWidth=2;html=1;fontSize=14;" parent="1" vertex="1">
          <mxGeometry x="1760" y="139.5" width="1060" height="10" as="geometry" />
        </mxCell>
        <mxCell id="Xdk9vmkyjLjq7mwxCuOa-39" value="&lt;span&gt;Face Recognition&lt;/span&gt;" style="text;html=1;resizable=0;points=[];autosize=1;align=left;verticalAlign=top;spacingTop=-4;fontSize=14;fontStyle=1" parent="1" vertex="1">
          <mxGeometry x="2160" y="272.5" width="140" height="20" as="geometry" />
        </mxCell>
        <mxCell id="Xdk9vmkyjLjq7mwxCuOa-41" value="" style="shape=curlyBracket;whiteSpace=wrap;html=1;rounded=1;fontSize=14;" parent="1" vertex="1">
          <mxGeometry x="2060" y="362.5" width="20" height="290" as="geometry" />
        </mxCell>
        <mxCell id="Xdk9vmkyjLjq7mwxCuOa-42" value="&lt;span&gt;Identification&lt;/span&gt;" style="edgeStyle=orthogonalEdgeStyle;html=1;endArrow=open;elbow=vertical;startArrow=none;endFill=0;strokeColor=#545B64;rounded=0;fontSize=14;strokeWidth=2;" parent="1" edge="1">
          <mxGeometry x="-0.037" y="20" width="100" relative="1" as="geometry">
            <mxPoint x="2300" y="320" as="sourcePoint" />
            <mxPoint x="2500" y="320" as="targetPoint" />
            <mxPoint as="offset" />
          </mxGeometry>
        </mxCell>
        <mxCell id="Xdk9vmkyjLjq7mwxCuOa-60" value="" style="rounded=0;whiteSpace=wrap;html=1;fillColor=#EAEDED;fontSize=22;fontColor=#FFFFFF;strokeColor=none;labelBackgroundColor=none;" parent="1" vertex="1">
          <mxGeometry x="2858.5" y="51" width="539" height="1220" as="geometry" />
        </mxCell>
        <mxCell id="Xdk9vmkyjLjq7mwxCuOa-61" value="1" style="rounded=1;whiteSpace=wrap;html=1;fillColor=#007CBD;strokeColor=none;fontColor=#FFFFFF;fontStyle=1;fontSize=22;labelBackgroundColor=none;" parent="1" vertex="1">
          <mxGeometry x="2876.5" y="63" width="40" height="38" as="geometry" />
        </mxCell>
        <mxCell id="Xdk9vmkyjLjq7mwxCuOa-62" value="2" style="rounded=1;whiteSpace=wrap;html=1;fillColor=#007CBD;strokeColor=none;fontColor=#FFFFFF;fontStyle=1;fontSize=22;labelBackgroundColor=none;" parent="1" vertex="1">
          <mxGeometry x="2875" y="185" width="40" height="38" as="geometry" />
        </mxCell>
        <mxCell id="Xdk9vmkyjLjq7mwxCuOa-63" value="3" style="rounded=1;whiteSpace=wrap;html=1;fillColor=#007CBD;strokeColor=none;fontColor=#FFFFFF;fontStyle=1;fontSize=22;labelBackgroundColor=none;" parent="1" vertex="1">
          <mxGeometry x="2875" y="305" width="40" height="38" as="geometry" />
        </mxCell>
        <mxCell id="Xdk9vmkyjLjq7mwxCuOa-64" value="4" style="rounded=1;whiteSpace=wrap;html=1;fillColor=#007CBD;strokeColor=none;fontColor=#FFFFFF;fontStyle=1;fontSize=22;labelBackgroundColor=none;" parent="1" vertex="1">
          <mxGeometry x="2875" y="419" width="40" height="38" as="geometry" />
        </mxCell>
        <mxCell id="Xdk9vmkyjLjq7mwxCuOa-65" value="5" style="rounded=1;whiteSpace=wrap;html=1;fillColor=#007CBD;strokeColor=none;fontColor=#FFFFFF;fontStyle=1;fontSize=22;labelBackgroundColor=none;" parent="1" vertex="1">
          <mxGeometry x="2876.5" y="536" width="40" height="38" as="geometry" />
        </mxCell>
        <mxCell id="Xdk9vmkyjLjq7mwxCuOa-66" value="6" style="rounded=1;whiteSpace=wrap;html=1;fillColor=#007CBD;strokeColor=none;fontColor=#FFFFFF;fontStyle=1;fontSize=22;labelBackgroundColor=none;" parent="1" vertex="1">
          <mxGeometry x="2877.5" y="651" width="40" height="38" as="geometry" />
        </mxCell>
        <mxCell id="Xdk9vmkyjLjq7mwxCuOa-67" value="7" style="rounded=1;whiteSpace=wrap;html=1;fillColor=#007CBD;strokeColor=none;fontColor=#FFFFFF;fontStyle=1;fontSize=22;labelBackgroundColor=none;" parent="1" vertex="1">
          <mxGeometry x="2877" y="767" width="40" height="38" as="geometry" />
        </mxCell>
        <mxCell id="Xdk9vmkyjLjq7mwxCuOa-68" value="8" style="rounded=1;whiteSpace=wrap;html=1;fillColor=#007CBD;strokeColor=none;fontColor=#FFFFFF;fontStyle=1;fontSize=22;labelBackgroundColor=none;" parent="1" vertex="1">
          <mxGeometry x="2877.5" y="885" width="40" height="38" as="geometry" />
        </mxCell>
        <mxCell id="Xdk9vmkyjLjq7mwxCuOa-69" value="9" style="rounded=1;whiteSpace=wrap;html=1;fillColor=#007CBD;strokeColor=none;fontColor=#FFFFFF;fontStyle=1;fontSize=22;labelBackgroundColor=none;" parent="1" vertex="1">
          <mxGeometry x="2875.5" y="1005" width="40" height="38" as="geometry" />
        </mxCell>
        <mxCell id="Xdk9vmkyjLjq7mwxCuOa-70" value="&lt;span&gt;Lorem ipsum dolor sit amet, consectetur adipiscing elit, sed do eiusmod tempor incididunt ut labore et dolore magna aliqua. Ut enim ad minim veniam, quis nostrud exercitation ullamco laboris nisi ut aliquip ex ea commodo consequat. Duis aute irure dolor in reprehenderit in voluptate velit esse cillum dolore eu fugiat nulla pariatur. Excepteur sint occaecat cupidatat non proident, sunt in culpa qui officia deserunt mollit anim id est laborum.&lt;/span&gt;&lt;br&gt;" style="text;html=1;align=left;verticalAlign=top;spacingTop=-4;fontSize=14;labelBackgroundColor=none;whiteSpace=wrap;" parent="1" vertex="1">
          <mxGeometry x="2928" y="62.5" width="449" height="118" as="geometry" />
        </mxCell>
        <mxCell id="Xdk9vmkyjLjq7mwxCuOa-71" value="&lt;span&gt;Lorem ipsum dolor sit amet, consectetur adipiscing elit, sed do eiusmod tempor incididunt ut labore et dolore magna aliqua. Ut enim ad minim veniam, quis nostrud exercitation ullamco laboris nisi ut aliquip ex ea commodo consequat. Duis aute irure dolor in reprehenderit in voluptate velit esse cillum dolore eu fugiat nulla pariatur. Excepteur sint occaecat cupidatat non proident, sunt in culpa qui officia deserunt mollit anim id est laborum.&lt;/span&gt;&lt;br&gt;" style="text;html=1;align=left;verticalAlign=top;spacingTop=-4;fontSize=14;labelBackgroundColor=none;whiteSpace=wrap;" parent="1" vertex="1">
          <mxGeometry x="2927" y="185.5" width="450" height="115" as="geometry" />
        </mxCell>
        <mxCell id="Xdk9vmkyjLjq7mwxCuOa-72" value="&lt;span&gt;Lorem ipsum dolor sit amet, consectetur adipiscing elit, sed do eiusmod tempor incididunt ut labore et dolore magna aliqua. Ut enim ad minim veniam, quis nostrud exercitation ullamco laboris nisi ut aliquip ex ea commodo consequat. Duis aute irure dolor in reprehenderit in voluptate velit esse cillum dolore eu fugiat nulla pariatur. Excepteur sint occaecat cupidatat non proident, sunt in culpa qui officia deserunt mollit anim id est laborum.&lt;/span&gt;&lt;br&gt;" style="text;html=1;align=left;verticalAlign=top;spacingTop=-4;fontSize=14;labelBackgroundColor=none;whiteSpace=wrap;" parent="1" vertex="1">
          <mxGeometry x="2927" y="303.5" width="450" height="117" as="geometry" />
        </mxCell>
        <mxCell id="Xdk9vmkyjLjq7mwxCuOa-73" value="&lt;span&gt;Lorem ipsum dolor sit amet, consectetur adipiscing elit, sed do eiusmod tempor incididunt ut labore et dolore magna aliqua. Ut enim ad minim veniam, quis nostrud exercitation ullamco laboris nisi ut aliquip ex ea commodo consequat. Duis aute irure dolor in reprehenderit in voluptate velit esse cillum dolore eu fugiat nulla pariatur. Excepteur sint occaecat cupidatat non proident, sunt in culpa qui officia deserunt mollit anim id est laborum.&lt;/span&gt;&lt;br&gt;" style="text;html=1;align=left;verticalAlign=top;spacingTop=-4;fontSize=14;labelBackgroundColor=none;whiteSpace=wrap;" parent="1" vertex="1">
          <mxGeometry x="2927" y="419.5" width="450" height="121" as="geometry" />
        </mxCell>
        <mxCell id="Xdk9vmkyjLjq7mwxCuOa-74" value="&lt;span&gt;Lorem ipsum dolor sit amet, consectetur adipiscing elit, sed do eiusmod tempor incididunt ut labore et dolore magna aliqua. Ut enim ad minim veniam, quis nostrud exercitation ullamco laboris nisi ut aliquip ex ea commodo consequat. Duis aute irure dolor in reprehenderit in voluptate velit esse cillum dolore eu fugiat nulla pariatur. Excepteur sint occaecat cupidatat non proident, sunt in culpa qui officia deserunt mollit anim id est laborum.&lt;/span&gt;&lt;br&gt;" style="text;html=1;align=left;verticalAlign=top;spacingTop=-4;fontSize=14;labelBackgroundColor=none;whiteSpace=wrap;" parent="1" vertex="1">
          <mxGeometry x="2928" y="536.5" width="449" height="114" as="geometry" />
        </mxCell>
        <mxCell id="Xdk9vmkyjLjq7mwxCuOa-75" value="&lt;span&gt;Lorem ipsum dolor sit amet, consectetur adipiscing elit, sed do eiusmod tempor incididunt ut labore et dolore magna aliqua. Ut enim ad minim veniam, quis nostrud exercitation ullamco laboris nisi ut aliquip ex ea commodo consequat. Duis aute irure dolor in reprehenderit in voluptate velit esse cillum dolore eu fugiat nulla pariatur. Excepteur sint occaecat cupidatat non proident, sunt in culpa qui officia deserunt mollit anim id est laborum.&lt;/span&gt;&lt;br&gt;" style="text;html=1;align=left;verticalAlign=top;spacingTop=-4;fontSize=14;labelBackgroundColor=none;whiteSpace=wrap;" parent="1" vertex="1">
          <mxGeometry x="2928" y="652.5" width="450" height="118" as="geometry" />
        </mxCell>
        <mxCell id="Xdk9vmkyjLjq7mwxCuOa-76" value="&lt;span&gt;Lorem ipsum dolor sit amet, consectetur adipiscing elit, sed do eiusmod tempor incididunt ut labore et dolore magna aliqua. Ut enim ad minim veniam, quis nostrud exercitation ullamco laboris nisi ut aliquip ex ea commodo consequat. Duis aute irure dolor in reprehenderit in voluptate velit esse cillum dolore eu fugiat nulla pariatur. Excepteur sint occaecat cupidatat non proident, sunt in culpa qui officia deserunt mollit anim id est laborum.&lt;/span&gt;&lt;br&gt;" style="text;html=1;align=left;verticalAlign=top;spacingTop=-4;fontSize=14;labelBackgroundColor=none;whiteSpace=wrap;" parent="1" vertex="1">
          <mxGeometry x="2928" y="767.5" width="449" height="113" as="geometry" />
        </mxCell>
        <mxCell id="Xdk9vmkyjLjq7mwxCuOa-77" value="&lt;span&gt;Lorem ipsum dolor sit amet, consectetur adipiscing elit, sed do eiusmod tempor incididunt ut labore et dolore magna aliqua. Ut enim ad minim veniam, quis nostrud exercitation ullamco laboris nisi ut aliquip ex ea commodo consequat. Duis aute irure dolor in reprehenderit in voluptate velit esse cillum dolore eu fugiat nulla pariatur. Excepteur sint occaecat cupidatat non proident, sunt in culpa qui officia deserunt mollit anim id est laborum.&lt;/span&gt;&lt;br&gt;" style="text;html=1;align=left;verticalAlign=top;spacingTop=-4;fontSize=14;labelBackgroundColor=none;whiteSpace=wrap;" parent="1" vertex="1">
          <mxGeometry x="2928" y="886.5" width="449" height="124" as="geometry" />
        </mxCell>
        <mxCell id="Xdk9vmkyjLjq7mwxCuOa-78" value="&lt;span&gt;Lorem ipsum dolor sit amet, consectetur adipiscing elit, sed do eiusmod tempor incididunt ut labore et dolore magna aliqua. Ut enim ad minim veniam, quis nostrud exercitation ullamco laboris nisi ut aliquip ex ea commodo consequat. Duis aute irure dolor in reprehenderit in voluptate velit esse cillum dolore eu fugiat nulla pariatur. Excepteur sint occaecat cupidatat non proident, sunt in culpa qui officia deserunt mollit anim id est laborum.&lt;/span&gt;&lt;br&gt;" style="text;html=1;align=left;verticalAlign=top;spacingTop=-4;fontSize=14;labelBackgroundColor=none;whiteSpace=wrap;" parent="1" vertex="1">
          <mxGeometry x="2928" y="1005.5" width="449" height="115" as="geometry" />
        </mxCell>
        <mxCell id="Xdk9vmkyjLjq7mwxCuOa-79" value="10" style="rounded=1;whiteSpace=wrap;html=1;fillColor=#007CBD;strokeColor=none;fontColor=#FFFFFF;fontStyle=1;fontSize=22;labelBackgroundColor=none;" parent="1" vertex="1">
          <mxGeometry x="2876.5" y="1130.5" width="40" height="38" as="geometry" />
        </mxCell>
        <mxCell id="Xdk9vmkyjLjq7mwxCuOa-80" value="&lt;span&gt;Lorem ipsum dolor sit amet, consectetur adipiscing elit, sed do eiusmod tempor incididunt ut labore et dolore magna aliqua. Ut enim ad minim veniam, quis nostrud exercitation ullamco laboris nisi ut aliquip ex ea commodo consequat. Duis aute irure dolor in reprehenderit in voluptate velit esse cillum dolore eu fugiat nulla pariatur. Excepteur sint occaecat cupidatat non proident, sunt in culpa qui officia deserunt mollit anim id est laborum.&lt;/span&gt;&lt;br&gt;" style="text;html=1;align=left;verticalAlign=top;spacingTop=-4;fontSize=14;labelBackgroundColor=none;whiteSpace=wrap;" parent="1" vertex="1">
          <mxGeometry x="2929" y="1131" width="449" height="115" as="geometry" />
        </mxCell>
        <mxCell id="Xdk9vmkyjLjq7mwxCuOa-162" value="AWS Lambda Function" style="outlineConnect=0;fontColor=#232F3E;gradientColor=none;fillColor=#277116;strokeColor=none;dashed=0;verticalLabelPosition=bottom;verticalAlign=top;align=center;html=1;fontSize=12;fontStyle=0;aspect=fixed;pointerEvents=1;shape=mxgraph.aws4.lambda_function;" parent="1" vertex="1">
          <mxGeometry x="2516" y="271.5" width="78" height="78" as="geometry" />
        </mxCell>
        <mxCell id="Xdk9vmkyjLjq7mwxCuOa-165" value="Social Scraping" style="text;html=1;resizable=0;points=[];autosize=1;align=left;verticalAlign=top;spacingTop=-4;fontSize=14;fontStyle=1" parent="1" vertex="1">
          <mxGeometry x="2510" y="224.5" width="130" height="20" as="geometry" />
        </mxCell>
        <mxCell id="Xdk9vmkyjLjq7mwxCuOa-174" value="Trained Model&lt;br&gt;" style="whiteSpace=wrap;html=1;fillColor=none;fontSize=14;fontColor=#000000;dashed=0;fontStyle=0;align=center;verticalAlign=top;strokeColor=#D86613;gradientColor=none;spacingLeft=0;labelPosition=center;verticalLabelPosition=bottom;container=1;pointerEvents=0;collapsible=0;recursiveResize=0;" parent="1" vertex="1">
          <mxGeometry x="2094" y="456" width="232" height="160" as="geometry" />
        </mxCell>
        <mxCell id="Xdk9vmkyjLjq7mwxCuOa-175" value="" style="whiteSpace=wrap;html=1;fillColor=none;fontSize=14;fontColor=#000000;dashed=0;fontStyle=0;align=center;verticalAlign=top;strokeColor=#CCCCCC;gradientColor=none;spacingLeft=0;labelPosition=center;verticalLabelPosition=bottom;" parent="1" vertex="1">
          <mxGeometry x="2104" y="539" width="210" height="70" as="geometry" />
        </mxCell>
        <mxCell id="Xdk9vmkyjLjq7mwxCuOa-177" value="Build" style="outlineConnect=0;gradientColor=none;fontColor=#545B64;strokeColor=none;fillColor=#879196;dashed=0;verticalLabelPosition=bottom;verticalAlign=top;align=center;html=1;fontSize=12;fontStyle=0;aspect=fixed;shape=mxgraph.aws4.illustration_devices;pointerEvents=1" parent="1" vertex="1">
          <mxGeometry x="2184" y="461" width="52" height="38" as="geometry" />
        </mxCell>
        <mxCell id="Xdk9vmkyjLjq7mwxCuOa-178" value="Train" style="outlineConnect=0;gradientColor=none;fontColor=#545B64;strokeColor=none;fillColor=#879196;dashed=0;verticalLabelPosition=bottom;verticalAlign=top;align=center;html=1;fontSize=12;fontStyle=0;aspect=fixed;shape=mxgraph.aws4.illustration_devices;pointerEvents=1" parent="1" vertex="1">
          <mxGeometry x="2114" y="549" width="52" height="38" as="geometry" />
        </mxCell>
        <mxCell id="Xdk9vmkyjLjq7mwxCuOa-179" value="Optimize" style="outlineConnect=0;gradientColor=none;fontColor=#545B64;strokeColor=none;fillColor=#879196;dashed=0;verticalLabelPosition=bottom;verticalAlign=top;align=center;html=1;fontSize=12;fontStyle=0;aspect=fixed;shape=mxgraph.aws4.illustration_devices;pointerEvents=1" parent="1" vertex="1">
          <mxGeometry x="2254" y="549" width="52" height="38" as="geometry" />
        </mxCell>
        <mxCell id="Xdk9vmkyjLjq7mwxCuOa-180" value="" style="edgeStyle=orthogonalEdgeStyle;html=1;endArrow=open;elbow=vertical;startArrow=none;endFill=0;strokeColor=#545B64;rounded=0;fontSize=14;" parent="1" edge="1">
          <mxGeometry width="100" relative="1" as="geometry">
            <mxPoint x="2180" y="575" as="sourcePoint" />
            <mxPoint x="2240" y="575" as="targetPoint" />
          </mxGeometry>
        </mxCell>
        <mxCell id="Xdk9vmkyjLjq7mwxCuOa-181" value="" style="edgeStyle=orthogonalEdgeStyle;html=1;endArrow=open;elbow=vertical;startArrow=none;endFill=0;strokeColor=#545B64;rounded=0;fontSize=14;" parent="1" edge="1">
          <mxGeometry width="100" relative="1" as="geometry">
            <mxPoint x="2214" y="517.9677419354839" as="sourcePoint" />
            <mxPoint x="2214" y="537.9677419354839" as="targetPoint" />
          </mxGeometry>
        </mxCell>
        <mxCell id="Xdk9vmkyjLjq7mwxCuOa-182" value="4" style="rounded=1;whiteSpace=wrap;html=1;fillColor=#007CBD;strokeColor=none;fontColor=#FFFFFF;fontStyle=1;fontSize=22;" parent="1" vertex="1">
          <mxGeometry x="2491" y="587" width="40" height="38" as="geometry" />
        </mxCell>
        <mxCell id="Xdk9vmkyjLjq7mwxCuOa-185" value="S3" style="sketch=0;points=[[0,0,0],[0.25,0,0],[0.5,0,0],[0.75,0,0],[1,0,0],[0,1,0],[0.25,1,0],[0.5,1,0],[0.75,1,0],[1,1,0],[0,0.25,0],[0,0.5,0],[0,0.75,0],[1,0.25,0],[1,0.5,0],[1,0.75,0]];outlineConnect=0;fontColor=#232F3E;gradientColor=#60A337;gradientDirection=north;fillColor=#277116;strokeColor=#ffffff;dashed=0;verticalLabelPosition=bottom;verticalAlign=top;align=center;html=1;fontSize=12;fontStyle=0;aspect=fixed;shape=mxgraph.aws4.resourceIcon;resIcon=mxgraph.aws4.s3;" parent="1" vertex="1">
          <mxGeometry x="2010" y="209" width="58.5" height="58.5" as="geometry" />
        </mxCell>
        <mxCell id="Xdk9vmkyjLjq7mwxCuOa-186" value="" style="curved=1;endArrow=classic;html=1;rounded=0;entryX=0;entryY=1;entryDx=0;entryDy=0;entryPerimeter=0;exitX=1;exitY=0.59;exitDx=0;exitDy=0;exitPerimeter=0;" parent="1" source="ao_nZeUup97RAPluZtlu-1" target="Xdk9vmkyjLjq7mwxCuOa-185" edge="1">
          <mxGeometry width="50" height="50" relative="1" as="geometry">
            <mxPoint x="2180" y="440" as="sourcePoint" />
            <mxPoint x="2230" y="390" as="targetPoint" />
            <Array as="points">
              <mxPoint x="1930" y="310" />
              <mxPoint x="2000" y="310" />
            </Array>
          </mxGeometry>
        </mxCell>
        <mxCell id="Xdk9vmkyjLjq7mwxCuOa-187" value="" style="curved=1;endArrow=classic;html=1;rounded=0;" parent="1" edge="1">
          <mxGeometry width="50" height="50" relative="1" as="geometry">
            <mxPoint x="2070" y="270" as="sourcePoint" />
            <mxPoint x="2171.2881252541683" y="341.60036826171427" as="targetPoint" />
            <Array as="points">
              <mxPoint x="2060" y="300" />
              <mxPoint x="2120" y="300" />
            </Array>
          </mxGeometry>
        </mxCell>
        <mxCell id="Xdk9vmkyjLjq7mwxCuOa-188" value="Data Visualisation" style="text;html=1;resizable=0;points=[];autosize=1;align=left;verticalAlign=top;spacingTop=-4;fontSize=14;fontStyle=1" parent="1" vertex="1">
          <mxGeometry x="2441" y="652.5" width="140" height="20" as="geometry" />
        </mxCell>
        <mxCell id="Xdk9vmkyjLjq7mwxCuOa-193" value="ML Model Executable&lt;br&gt;" style="sketch=0;points=[[0,0,0],[0.25,0,0],[0.5,0,0],[0.75,0,0],[1,0,0],[0,1,0],[0.25,1,0],[0.5,1,0],[0.75,1,0],[1,1,0],[0,0.25,0],[0,0.5,0],[0,0.75,0],[1,0.25,0],[1,0.5,0],[1,0.75,0]];outlineConnect=0;fontColor=#232F3E;gradientColor=#4AB29A;gradientDirection=north;fillColor=#116D5B;strokeColor=#ffffff;dashed=0;verticalLabelPosition=bottom;verticalAlign=top;align=center;html=1;fontSize=12;fontStyle=0;aspect=fixed;shape=mxgraph.aws4.resourceIcon;resIcon=mxgraph.aws4.deep_learning_containers;" parent="1" vertex="1">
          <mxGeometry x="2176" y="341" width="78" height="78" as="geometry" />
        </mxCell>
        <mxCell id="Xdk9vmkyjLjq7mwxCuOa-194" value="" style="sketch=0;points=[[0,0,0],[0.25,0,0],[0.5,0,0],[0.75,0,0],[1,0,0],[0,1,0],[0.25,1,0],[0.5,1,0],[0.75,1,0],[1,1,0],[0,0.25,0],[0,0.5,0],[0,0.75,0],[1,0.25,0],[1,0.5,0],[1,0.75,0]];outlineConnect=0;fontColor=#232F3E;gradientColor=#4AB29A;gradientDirection=north;fillColor=#116D5B;strokeColor=#ffffff;dashed=0;verticalLabelPosition=bottom;verticalAlign=top;align=center;html=1;fontSize=12;fontStyle=0;aspect=fixed;shape=mxgraph.aws4.resourceIcon;resIcon=mxgraph.aws4.forecast;" parent="1" vertex="1">
          <mxGeometry x="2472" y="692.5" width="78" height="78" as="geometry" />
        </mxCell>
        <mxCell id="Xdk9vmkyjLjq7mwxCuOa-195" value="Athena" style="sketch=0;points=[[0,0,0],[0.25,0,0],[0.5,0,0],[0.75,0,0],[1,0,0],[0,1,0],[0.25,1,0],[0.5,1,0],[0.75,1,0],[1,1,0],[0,0.25,0],[0,0.5,0],[0,0.75,0],[1,0.25,0],[1,0.5,0],[1,0.75,0]];outlineConnect=0;fontColor=#232F3E;gradientColor=#945DF2;gradientDirection=north;fillColor=#5A30B5;strokeColor=#ffffff;dashed=0;verticalLabelPosition=bottom;verticalAlign=top;align=center;html=1;fontSize=12;fontStyle=0;aspect=fixed;shape=mxgraph.aws4.resourceIcon;resIcon=mxgraph.aws4.athena;" parent="1" vertex="1">
          <mxGeometry x="2710" y="499" width="78" height="78" as="geometry" />
        </mxCell>
        <mxCell id="Xdk9vmkyjLjq7mwxCuOa-196" value="" style="curved=1;endArrow=classic;html=1;rounded=0;entryX=0;entryY=0;entryDx=0;entryDy=0;entryPerimeter=0;" parent="1" source="Xdk9vmkyjLjq7mwxCuOa-162" target="Xdk9vmkyjLjq7mwxCuOa-195" edge="1">
          <mxGeometry width="50" height="50" relative="1" as="geometry">
            <mxPoint x="1883" y="338" as="sourcePoint" />
            <mxPoint x="2020" y="278" as="targetPoint" />
            <Array as="points">
              <mxPoint x="2650" y="330" />
              <mxPoint x="2720" y="400" />
            </Array>
          </mxGeometry>
        </mxCell>
        <mxCell id="Xdk9vmkyjLjq7mwxCuOa-197" value="" style="curved=1;endArrow=classic;html=1;rounded=0;exitX=0;exitY=1;exitDx=0;exitDy=0;exitPerimeter=0;" parent="1" source="Xdk9vmkyjLjq7mwxCuOa-195" target="Xdk9vmkyjLjq7mwxCuOa-194" edge="1">
          <mxGeometry width="50" height="50" relative="1" as="geometry">
            <mxPoint x="2604" y="329" as="sourcePoint" />
            <mxPoint x="2720" y="509" as="targetPoint" />
            <Array as="points">
              <mxPoint x="2690" y="630" />
              <mxPoint x="2630" y="690" />
            </Array>
          </mxGeometry>
        </mxCell>
        <mxCell id="ao_nZeUup97RAPluZtlu-1" value="EC2" style="outlineConnect=0;dashed=0;verticalLabelPosition=bottom;verticalAlign=top;align=center;html=1;shape=mxgraph.aws3.ec2_systems_manager;fillColor=#759C3E;gradientColor=none;" vertex="1" parent="1">
          <mxGeometry x="1801.5" y="378.5" width="79.5" height="82.5" as="geometry" />
        </mxCell>
        <mxCell id="ao_nZeUup97RAPluZtlu-3" value="" style="curved=1;endArrow=classic;html=1;rounded=0;entryX=0;entryY=0.78;entryDx=0;entryDy=0;entryPerimeter=0;" edge="1" parent="1" source="Xdk9vmkyjLjq7mwxCuOa-5" target="ao_nZeUup97RAPluZtlu-1">
          <mxGeometry width="50" height="50" relative="1" as="geometry">
            <mxPoint x="1891" y="437" as="sourcePoint" />
            <mxPoint x="2020" y="278" as="targetPoint" />
            <Array as="points">
              <mxPoint x="1880" y="320" />
              <mxPoint x="1710" y="450" />
            </Array>
          </mxGeometry>
        </mxCell>
      </root>
    </mxGraphModel>
  </diagram>
</mxfile>
